<?xml version="1.0" encoding="UTF-8"?>
<svg id="uuid-c964d8b0-c28b-4f0f-8ab1-e725dcdb4f6b" data-name="reashal" xmlns="http://www.w3.org/2000/svg" viewBox="0 0 46 46">
  <g id="uuid-b1669eef-bbd2-41ea-8bf5-df742fb013e6" data-name="猫身">
    <path d="m33.37,22.17c0-2.33-.78-4.13-2.08-5.45-.02-4.89-.31-4.76-4.14-2.84-.24.12-.48.24-.72.35-1.08-.23-2.23-.35-3.43-.35s-2.36.12-3.43.35c-.24-.12-.48-.23-.72-.35-3.83-1.92-4.12-2.05-4.14,2.84-1.3,1.32-2.08,3.12-2.08,5.45,0,3.03,1.31,5.17,3.39,6.52-1.04,1.78-1.66,3.97-1.66,6.34,0,.06,0,.12,0,.18,2.43,1.75,5.41,2.8,8.63,2.8s6.2-1.04,8.63-2.8c0-.06,0-.12,0-.18,0-2.37-.62-4.56-1.66-6.34,2.08-1.35,3.39-3.49,3.39-6.52Zm-7.92,1.72c-.14.07-3.27,1.71-2.48,4.87.13.52.37,1.01.63,1.54.7,1.42,1.57,3.18.32,6.1-.16.38-.53.61-.92.61-.13,0-.27-.03-.39-.08-.51-.22-.74-.81-.52-1.31.89-2.07.37-3.11-.27-4.43-.29-.59-.59-1.21-.78-1.93-.94-3.78,1.89-6.32,3.52-7.14.49-.25,1.09-.05,1.34.45.25.49.05,1.09-.44,1.34Z"/>
  </g>
  <g id="uuid-878abbc3-8096-42f0-a5fd-a2b98fb744ce" data-name="星环">
    <path d="m19.12,40.38c-.12,0-.21.04-.28.12-.07.08-.12.19-.15.33h.19c.17,0,.29-.03.37-.08s.11-.11.11-.18c0-.06-.02-.11-.06-.14-.04-.03-.1-.05-.18-.05Z"/>
    <path d="m20.89,40.59c-.07.13-.11.33-.11.58,0,.28.09.42.27.42.11,0,.21-.08.31-.23l.03-.28c.01-.18.03-.31.04-.38l.02-.1.02-.11c-.08-.07-.17-.11-.26-.11-.14,0-.24.07-.31.2Z"/>
    <path d="m26.98,40.59c-.07.13-.11.33-.11.58,0,.28.09.42.27.42.11,0,.21-.08.31-.23l.03-.28c.01-.18.03-.31.04-.38l.02-.1.02-.11c-.08-.07-.17-.11-.26-.11-.14,0-.24.07-.31.2Z"/>
    <path d="m23,0C10.3,0,0,10.3,0,23s10.3,23,23,23,23-10.3,23-23S35.7,0,23,0Zm-5.1,40.34c-.04.09-.07.14-.1.14-.01,0-.03,0-.06-.02s-.06-.02-.1-.02c-.06,0-.12.02-.18.05-.06.04-.12.09-.16.15-.02.22-.04.47-.07.74-.03.27-.05.46-.06.54,0,.09-.09.13-.25.13h-.11c-.07,0-.13-.01-.17-.04-.04-.02-.06-.05-.06-.09l.14-1.31c.01-.1.02-.2.02-.28v-.14s0-.05,0-.08c0-.04.04-.08.13-.1.09-.03.2-.04.33-.04.08,0,.12.08.13.25.06-.09.13-.16.2-.21.07-.05.16-.08.26-.08.13,0,.19.06.19.18,0,.07-.02.15-.06.24Zm1.9.58c-.08.11-.19.19-.32.24-.13.05-.27.08-.41.08s-.29,0-.42-.03c.01.15.05.26.12.32.07.06.17.09.3.09.16,0,.34-.05.54-.14.04-.02.07-.03.08-.03s.02,0,.02.01c0,0,0,.02,0,.05,0,.01,0,.06-.01.14s-.01.14-.02.17c-.03.1-.12.17-.26.21-.14.04-.29.07-.44.07-.32,0-.55-.08-.71-.23-.16-.15-.23-.37-.23-.65,0-.43.1-.76.31-.96.21-.21.47-.31.79-.31.2,0,.36.03.47.09.12.06.2.14.24.23.04.09.06.17.06.26,0,.17-.04.31-.13.42Zm2.37.95c-.01.07-.05.12-.12.15-.07.04-.15.05-.23.05-.25,0-.41-.1-.46-.3-.06.09-.14.17-.23.22-.1.06-.2.09-.31.09-.2,0-.35-.08-.47-.23-.12-.15-.18-.36-.18-.64,0-.25.04-.48.11-.67s.18-.35.31-.45.29-.16.46-.16c.1,0,.19.02.27.06.08.04.15.09.21.15.02-.06.03-.09.04-.12.01-.02.04-.04.07-.05.03-.01.08-.02.15-.02h.05c.15,0,.23.03.23.1l-.04.35c-.07.69-.11,1.05-.11,1.08,0,.05,0,.08.03.1.02.02.05.03.09.03.02,0,.05,0,.07-.01.02,0,.04-.01.05-.01.01,0,.02,0,.03,0,0,0,0,.02,0,.04,0,.05,0,.13-.03.24Zm1.59-1.59s-.05.09-.09.13c-.03.04-.06.06-.09.06-.02,0-.05,0-.08-.02-.11-.04-.19-.06-.26-.06-.07,0-.13.02-.16.05-.04.03-.05.08-.05.13,0,.05.02.08.06.11s.1.07.19.11c.1.04.18.08.24.13.06.04.12.1.16.18.05.08.07.18.07.29,0,.22-.08.39-.23.51-.15.12-.34.18-.58.18-.13,0-.27-.02-.4-.05-.13-.04-.2-.1-.2-.19,0-.24.03-.36.09-.36,0,0,.03.01.08.04.13.07.25.1.36.1.08,0,.15-.02.2-.05.05-.03.07-.07.07-.13s-.02-.1-.06-.13c-.04-.03-.11-.07-.2-.12-.09-.04-.17-.09-.23-.13-.06-.04-.11-.1-.16-.17-.04-.07-.07-.17-.07-.28,0-.21.07-.38.22-.5s.34-.18.57-.18c.14,0,.27.02.39.06.12.04.19.1.19.19,0,.03-.01.06-.04.11Zm2.27,1.59c-.01.07-.05.12-.12.15-.07.04-.15.05-.23.05-.16,0-.28-.04-.36-.12s-.12-.21-.12-.39c0-.06.02-.25.06-.58.02-.23.04-.35.04-.38,0-.07-.02-.12-.05-.15s-.09-.05-.16-.05c-.12,0-.24.08-.34.23l-.14,1.29c0,.09-.09.13-.25.13h-.11c-.08,0-.13-.01-.17-.04-.04-.02-.06-.05-.06-.09l.29-2.77c0-.09.09-.13.25-.13h.11c.08,0,.13.01.17.04.04.02.06.05.06.09l-.11,1.04c.07-.08.16-.14.27-.19.11-.05.21-.08.32-.08.18,0,.31.04.4.12.09.08.13.21.13.38,0,.04-.02.23-.06.58-.03.27-.04.43-.04.47,0,.05,0,.08.03.1s.05.03.09.03c.02,0,.05,0,.07-.01s.04-.01.05-.01c.01,0,.02,0,.03,0,0,0,0,.02,0,.04,0,.05,0,.13-.03.24Zm2.24,0c-.01.07-.05.12-.12.15-.07.04-.15.05-.23.05-.25,0-.41-.1-.46-.3-.06.09-.14.17-.23.22-.1.06-.2.09-.31.09-.2,0-.35-.08-.47-.23-.12-.15-.18-.36-.18-.64,0-.25.04-.48.11-.67.08-.19.18-.35.31-.45s.29-.16.46-.16c.1,0,.19.02.27.06.08.04.15.09.21.15.02-.06.03-.09.04-.12.01-.02.04-.04.07-.05s.08-.02.15-.02h.05c.15,0,.23.03.23.1l-.04.35c-.08.69-.11,1.05-.11,1.08,0,.05,0,.08.03.1.02.02.05.03.09.03.02,0,.05,0,.07-.01.02,0,.04-.01.05-.01.01,0,.02,0,.03,0,0,0,0,.02,0,.04,0,.05,0,.13-.03.24Zm1.05,0c0,.07-.05.12-.12.15-.07.04-.15.05-.23.05-.16,0-.28-.04-.36-.12-.08-.08-.12-.21-.12-.39,0-.05.04-.41.11-1.07.07-.66.12-1.11.15-1.35,0-.04.02-.07.05-.09.03-.02.08-.03.15-.03h.19c.12,0,.19.04.19.11l-.24,2.34s0,.08.03.1.05.03.09.03c.02,0,.05,0,.07-.01s.04-.01.05-.01c.01,0,.02,0,.03,0,0,0,0,.02,0,.04,0,.05,0,.13-.03.24Zm-6.32-4.06c-8.16,0-14.8-6.64-14.8-14.8s6.64-14.8,14.8-14.8,14.8,6.64,14.8,14.8-6.64,14.8-14.8,14.8Z"/>
  </g>
</svg>