<?xml version="1.0" encoding="utf-8"?>
<!-- Generator: $$$/GeneralStr/196=Adobe Illustrator 27.6.0, SVG Export Plug-In . SVG Version: 6.00 Build 0)  -->
<svg version="1.1" id="图层_1" xmlns="http://www.w3.org/2000/svg" xmlns:xlink="http://www.w3.org/1999/xlink" x="0px" y="0px"
	 viewBox="0 0 480 480" style="enable-background:new 0 0 480 480;" xml:space="preserve">
<style type="text/css">
	.st0{fill:#6B3C10;}
	.st1{fill:#E9DFCD;}
	.st2{fill:#60390F;}
	.st3{fill:#9C7347;}
	.st4{fill:#422D19;}
	.st5{fill:#3F2F1E;}
	.st6{fill:#251910;}
	.st7{fill:#E4E7E5;}
	.st8{fill:#A19C90;}
	.st9{fill:#57514A;}
	.st10{fill:#211E0D;}
	.st11{fill:#917554;}
	.st12{fill:#593D0D;}
	.st13{display:none;}
	.st14{display:inline;opacity:0.6;fill:#FFFFFF;}
	.st15{display:inline;fill:#24E68A;}
	.st16{opacity:0;fill:none;stroke:#000000;stroke-width:2;stroke-miterlimit:10;}
</style>
<g>
	<path id="右耳" class="st0" d="M403.4,45.76c-15.38-6.49-51.49,17.35-56.61,32.98c-0.56,1.71-0.42,3.42,0.27,5.1
		c20.71,4.81,42.16,12.8,63.43,24.85l0,0.54c6.12-5.71,8.2-19.96,12.35-30.13C428.63,64.91,416.9,51.46,403.4,45.76z"/>
	<path id="头_00000116230398905715326990000005157394479814017952_" class="st1" d="M410.11,433.59
		c-98.74,6.78-176.28,7.63-230.92-19.91c-90.72-45.71-119.25-118.18-78.85-200c48.33-97.86,50.27-103.95,144.13-129.29
		c42.33-11.43,104.91-10.34,166.03,24.29"/>
	<path id="左耳" class="st2" d="M113.45,187.24c16.09-32.09,27.03-51.44,41.47-65c-9.43-21.68-45.01-51.19-67.7-40.45
		c-23.31,11.03-72.64,75.75-36.24,97.77C59.48,184.7,90.66,190.69,113.45,187.24z"/>
	<path id="大眼眶" class="st3" d="M258.1,282.68c-34.34,35.59-13.57,64.48,12.87,67.82c41.07,5.19,19.25-34.51,43.06-45.39
		c29.23-13.35,22.34-37.35,4.64-48.15C303.03,247.42,279.58,260.41,258.1,282.68z"/>
	<path id="中眼眶" class="st4" d="M326.94,280c6.79,14.54-14.81,23.96-33.52,18.48c-12.61-3.69-20.12-9.06-20.5-16.67
		c-0.38-7.54,9.47-14.72,25.09-15.2C311.34,266.19,323.63,272.91,326.94,280z"/>
	<path id="小眼眶" class="st5" d="M312.95,280c0.77,4.39-5.64,8.99-16.96,11.7c-13.8,3.3-18.81-5.25-18.65-8.43
		c0.25-4.9,1.12-10.66,17.49-9.7C306.56,274.26,312.18,275.61,312.95,280z"/>
	<path id="黑眼珠" class="st6" d="M278.43,281.51c0-4.57,4.7-7.67,11.55-7.67c6.85,0,13.24,3.1,13.24,7.67s-5.55,8.27-12.4,8.27
		S278.43,286.08,278.43,281.51z"/>
	<path id="眼白_00000019667729246272355190000005813641707222744239_" class="st7" d="M309.44,282.52
		c-1.16,3.71-6.7,6.89-8.66,6.44c-2.29-0.52,3.14-4.32,2.64-7.76c-0.6-4.05-3.59-4.92,1.27-4.89
		C308.17,276.34,310.38,279.5,309.44,282.52z"/>
	<path id="小眼白" class="st8" d="M294.5,279.95c0.58,1.24-0.23,1.8-1.85,1.97c-2.28,0.24-2.86-0.21-2.86-1.29
		s1.3-2.23,2.59-2.23S294.03,278.95,294.5,279.95z"/>
	<path id="大鼻圈" class="st9" d="M406.94,360.35l0.96-11.74c0.05-1.12,0.45-4.83,0.35-5.95c-0.04-0.53-0.53-6.3-0.53-6.83
		l0.19-3.57c-0.96-1.84-4.13-0.32-14.37,0.77c-15.1,1.61-14.89,6.43-16.69,11.52c-4.12,11.66,13.67,18.04,29.89,15.94
		C406.81,360.48,406.88,360.43,406.94,360.35z"/>
	<path id="小鼻圈" class="st10" d="M407.9,348.62c0.01-0.35,0.06-0.94,0.12-1.63c-1.59-1.02-3.46-1.67-3.67-2.7
		c-0.64-3.08-16.66-6.84-17.96-3.35c-1.31,3.49,4.69,8.64,10.49,10.71c0.46,0.16,7.53,2.92,10.52,3.09L407.9,348.62z"/>
	<path id="嘴巴" class="st11" d="M408.33,390.36c0,6.83-46.3,14.28-79.17,13.75c-35.19-0.57-32.94-12.2-30.09-21.6
		c1.64-5.41,18.19,12.83,51.08,12.83S408.33,382.47,408.33,390.36z"/>
	<path id="树_00000178919530396954661940000013100777666133287098_" class="st12" d="M409.38,40l-0.01,2.07
		c0,0,0.25,2.35,0.25,3.52v2.02c0,5.11,0.26,10.21,0.78,15.3l0.02,0.17c0.28,2.73,0.28,5.48,0.01,8.21l-0.02,0.21
		c-0.53,5.39-0.48,10.8,0.16,16.16l0.05,0.42c0.16,1.33,0.37,2.65,0.63,3.97l0.02,0.11c0.91,4.5,1,9.08,0.28,13.6l-0.09,0.58
		c-0.43,2.7-0.65,5.43-0.65,8.16c0,2.84,0,6.11,0,6.11c-0.26,4.28-0.31,8.57-0.15,12.86l0.15,4.28v5.74c0,2.6-0.08,5.2-0.24,7.8
		l-0.45,7.14c-0.01,0.61-0.21,4.33-0.22,4.94l0.21,6.96l0.27,12.5c0.03,1.6-0.06,3.21-0.27,4.8l-0.63,8.68
		c-0.24,1.78,0.27,4.19,0.06,6.19c-0.15,1.48-0.34,2.97-0.3,4.46l0,0.03c0.01,0.42-0.04,0.84-0.13,1.26
		c-0.17,0.75-0.38,3.69-0.38,3.69l-0.21,5.09c0,0.14-0.01,0.33-0.03,0.56c-0.21,2.47-0.12,7.21-0.12,7.21l-0.07,1.68l-0.04,2.7
		c0,0.3,0,1.77-0.02,2.59c0,0.6,0,1.19,0.01,1.79l0.05,2.31v6.34l-0.07,2.47l-0.24,3.87c-0.03,0.11-0.14,4.17-0.14,4.17l-0.08,4.58
		l-0.24,3.77l-0.05,1.65c-0.01,0.28,0,0,0.02,2.17l-0.02,2c-0.01,0.82,0,5.16,0,5.16l-0.04,3.4l0.03,1.36v1.35l0.04,1.51l0.08,1.47
		l0.1,1.6l0.13,2.25l0.18,3.03c0.01,0.66,0.03,1.74,0.04,2.4l-0.17,7.25c0,0,0.04,3.96,0.06,3.95c0,0,0.03,1.22,0.03,1.23l0.21,4.27
		c0.17,1.11,0.25,4.47,0.25,4.47v11.25l-0.69,12.99c0,0.53,0.48,6.31,0.53,6.83c0.1,1.12-0.3,4.83-0.35,5.95l-1.08,13.2l1.59,16.07
		c0.02,1.6,0.92,9.55,1.27,11.12l0.64,12.86v10.72c0,3.02-0.11,6.04-0.33,9.05l-0.31,4.19c0,0,0,0,0,0
		c0.14,2.76-0.12,8.12-0.58,12.05c-0.13,1.14,0.91,2.12,2.27,2.12H438V40H409.38z"/>
	<g class="st13">
		<circle class="st14" cx="403.22" cy="405.22" r="34.78"/>
		<circle class="st15" cx="403.22" cy="405.22" r="22.03"/>
	</g>
</g>
<rect class="st16" width="480" height="480"/>
</svg>
