<?xml version="1.0" encoding="UTF-8"?>
<svg id="_图层_1" data-name="图层 1" xmlns="http://www.w3.org/2000/svg" viewBox="0 0 100 100">
  <defs>
    <style>
      .cls-1 {
        fill: none;
      }
    </style>
  </defs>
  <g>
    <g id="R1">
      <path d="m20.88,85h-4.76c-.62,0-1.12-.51-1.12-1.13V21.3h7v62.57c0,.63-.5,1.13-1.12,1.13Z"/>
    </g>
    <g id="R2">
      <path d="m85,22H15v-5.88c0-.62.5-1.12,1.12-1.12h65.38c1.93,0,3.5,1.57,3.5,3.5v3.5Z"/>
    </g>
    <g id="R3">
      <path d="m83.4,85h-3.8c-.88,0-1.6-.72-1.6-1.6V21.3h7v62.1c0,.88-.72,1.6-1.6,1.6Z"/>
    </g>
    <g id="R4">
      <rect x="20.95" y="54.2" width="57.4" height="7"/>
    </g>
    <path id="S1" d="m32.7,30.4h34.6c.88,0,1.6.72,1.6,1.6v3.8c0,.88-.72,1.6-1.6,1.6H31.1v-5.4c0-.88.72-1.6,1.6-1.6Z"/>
    <rect id="S2" x="31.1" y="36.7" width="7" height="18.2"/>
    <rect id="S3" x="61.9" y="60.5" width="7" height="18.2"/>
    <path id="S4" d="m32.7,78h36.2v5.4c0,.88-.72,1.6-1.6,1.6H31.1v-5.4c0-.88.72-1.6,1.6-1.6Z"/>
  </g>
  <rect class="cls-1" width="100" height="100"/>
</svg>