<?xml version="1.0" encoding="UTF-8"?>
<svg id="_图层_1" data-name="图层 1" xmlns="http://www.w3.org/2000/svg" viewBox="0 0 100 100">
  <defs>
    <style>
      .cls-1 {
        fill: none;
      }
    </style>
  </defs>
  <g>
    <g id="R1">
      <path d="m29.2,75h-3.4c-.44,0-.8-.36-.8-.81V29.5h5v44.69c0,.45-.36.81-.8.81Z"/>
    </g>
    <g id="R2">
      <path d="m75,30H25v-4.2c0-.44.36-.8.8-.8h46.7c1.38,0,2.5,1.12,2.5,2.5v2.5Z"/>
    </g>
    <g id="R3">
      <path d="m73.4,75h-1.8c-.88,0-1.6-.72-1.6-1.6V29.5h5v43.9c0,.88-.72,1.6-1.6,1.6Z"/>
    </g>
    <g id="R4">
      <rect x="29.25" y="53" width="41" height="5"/>
    </g>
    <path id="S1" d="m38.1,36h23.8c.88,0,1.6.72,1.6,1.6v1.8c0,.88-.72,1.6-1.6,1.6h-25.4v-3.4c0-.88.72-1.6,1.6-1.6Z"/>
    <rect id="S2" x="36.5" y="40.5" width="5" height="13"/>
    <rect id="S3" x="58.5" y="57.5" width="5" height="13"/>
    <path id="S4" d="m38.1,70h25.4v3.4c0,.88-.72,1.6-1.6,1.6h-25.4v-3.4c0-.88.72-1.6,1.6-1.6Z"/>
  </g>
  <rect class="cls-1" width="100" height="100"/>
</svg>