<?xml version="1.0" encoding="UTF-8"?>
<svg id="_图层_1" data-name="图层 1" xmlns="http://www.w3.org/2000/svg" viewBox="0 0 100 100">
  <defs>
    <style>
      .cls-1 {
        fill: none;
      }
    </style>
  </defs>
  <g>
    <g id="R1">
      <path d="m25.04,80h-4.08c-.53,0-.96-.43-.96-.97V25.4h6v53.63c0,.54-.43.97-.96.97Z"/>
    </g>
    <g id="R2">
      <path d="m80,26H20v-5.04c0-.53.43-.96.96-.96h56.04c1.66,0,3,1.34,3,3v3Z"/>
    </g>
    <g id="R3">
      <path d="m78.4,80h-2.8c-.88,0-1.6-.72-1.6-1.6V25.4h6v53c0,.88-.72,1.6-1.6,1.6Z"/>
    </g>
    <g id="R4">
      <rect x="25.1" y="53.6" width="49.2" height="6"/>
    </g>
    <path id="S1" d="m35.4,33.2h29.2c.88,0,1.6.72,1.6,1.6v2.8c0,.88-.72,1.6-1.6,1.6h-30.8v-4.4c0-.88.72-1.6,1.6-1.6Z"/>
    <rect id="S2" x="33.8" y="38.6" width="6" height="15.6"/>
    <rect id="S3" x="60.2" y="59" width="6" height="15.6"/>
    <path id="S4" d="m35.4,74h30.8v4.4c0,.88-.72,1.6-1.6,1.6h-30.8v-4.4c0-.88.72-1.6,1.6-1.6Z"/>
  </g>
  <rect class="cls-1" width="100" height="100"/>
</svg>