<?xml version="1.0" encoding="utf-8"?>
<!-- Generator: $$$/GeneralStr/196=Adobe Illustrator 27.6.0, SVG Export Plug-In . SVG Version: 6.00 Build 0)  -->
<svg version="1.1" id="图层_1" xmlns="http://www.w3.org/2000/svg" xmlns:xlink="http://www.w3.org/1999/xlink" x="0px" y="0px"
	 viewBox="0 0 480 480" style="enable-background:new 0 0 480 480;" xml:space="preserve">
<style type="text/css">
	.st0{fill:#6B3C10;}
	.st1{fill:#E9DFCD;}
	.st2{fill:#60390F;}
	.st3{fill:#9C7347;}
	.st4{fill:#422D19;}
	.st5{fill:#3F2F1E;}
	.st6{fill:#251910;}
	.st7{fill:#E4E7E5;}
	.st8{fill:#A19C90;}
	.st9{fill:#57514A;}
	.st10{fill:#211E0D;}
	.st11{fill:#917554;}
	.st12{fill:#593D0D;}
	.st13{display:none;}
	.st14{display:inline;opacity:0.6;fill:#FFFFFF;}
	.st15{display:inline;fill:#24E68A;}
	.st16{opacity:0;fill:none;stroke:#000000;stroke-width:2;stroke-miterlimit:10;}
</style>
<g>
	<path id="右耳" class="st0" d="M354.33,65.19c-13.86-5.85-46.41,15.64-51.02,29.72c-0.51,1.55-0.38,3.08,0.25,4.6
		c18.67,4.34,38,11.53,57.17,22.4l0,0.48c5.51-5.15,7.39-17.99,11.13-27.16C377.07,82.45,366.5,70.33,354.33,65.19z"/>
	<path id="头_00000116230398905715326990000005157394479814017952_" class="st1" d="M360.37,414.74
		c-89,6.11-158.88,6.87-208.13-17.94c-81.76-41.2-107.48-106.52-71.06-180.26c43.55-88.2,45.31-93.69,129.9-116.52
		c38.15-10.3,94.56-9.32,149.64,21.9"/>
	<path id="左耳" class="st2" d="M93,192.7c14.5-28.92,24.36-46.37,37.37-58.58c-8.5-19.54-40.57-46.14-61.01-36.46
		c-21.01,9.94-65.47,68.27-32.67,88.12C44.36,190.41,72.46,195.82,93,192.7z"/>
	<path id="大眼眶" class="st3" d="M223.37,278.72c-30.95,32.08-12.23,58.12,11.6,61.13c37.01,4.68,17.35-31.1,38.81-40.91
		c26.35-12.03,20.13-33.67,4.18-43.4C263.86,246.94,242.74,258.65,223.37,278.72z"/>
	<path id="中眼眶" class="st4" d="M285.41,276.31c6.12,13.1-13.35,21.59-30.21,16.66c-11.36-3.32-18.13-8.16-18.47-15.03
		c-0.34-6.79,8.53-13.27,22.61-13.7C271.36,263.86,282.43,269.92,285.41,276.31z"/>
	<path id="小眼眶" class="st5" d="M272.81,276.31c0.7,3.96-5.08,8.1-15.28,10.54c-12.44,2.98-16.96-4.73-16.81-7.6
		c0.22-4.42,1.01-9.6,15.76-8.74C267.05,271.13,272.11,272.35,272.81,276.31z"/>
	<path id="黑眼珠" class="st6" d="M241.7,277.67c0-4.12,4.24-6.91,10.41-6.91c6.17,0,11.94,2.8,11.94,6.91
		c0,4.12-5,7.46-11.17,7.46C246.7,285.12,241.7,281.79,241.7,277.67z"/>
	<path id="眼白_00000019667729246272355190000005813641707222744239_" class="st7" d="M269.64,278.58
		c-1.05,3.34-6.04,6.21-7.81,5.81c-2.06-0.47,2.83-3.89,2.38-6.99c-0.54-3.65-3.23-4.44,1.15-4.41
		C268.5,273.01,270.49,275.86,269.64,278.58z"/>
	<path id="小眼白" class="st8" d="M256.18,276.27c0.52,1.11-0.2,1.62-1.67,1.77c-2.06,0.21-2.58-0.19-2.58-1.17
		s1.18-2.01,2.33-2.01S255.76,275.36,256.18,276.27z"/>
	<path id="大鼻圈" class="st9" d="M357.52,348.73l0.87-10.58c0.04-1.01,0.4-4.36,0.32-5.37c-0.04-0.47-0.48-5.68-0.48-6.16
		l0.17-3.22c-0.87-1.66-3.72-0.29-12.95,0.7c-13.61,1.45-13.42,5.79-15.04,10.38c-3.71,10.51,12.32,16.26,26.94,14.36
		C357.4,348.84,357.46,348.8,357.52,348.73z"/>
	<path id="小鼻圈" class="st10" d="M358.39,338.15c0.01-0.31,0.06-0.85,0.11-1.47c-1.44-0.92-3.12-1.51-3.31-2.43
		c-0.57-2.78-15.01-6.16-16.19-3.02c-1.18,3.15,4.23,7.79,9.46,9.66c0.41,0.15,6.79,2.63,9.48,2.78L358.39,338.15z"/>
	<path id="嘴巴" class="st11" d="M358.77,375.77c0,6.16-41.73,12.87-71.36,12.39c-31.71-0.52-29.69-10.99-27.12-19.46
		c1.48-4.88,16.4,11.56,46.03,11.56S358.77,368.66,358.77,375.77z"/>
	<path id="树_00000178919530396954661940000013100777666133287098_" class="st12" d="M359.71,60l-0.01,1.86
		c0,0,0.22,2.11,0.22,3.18v1.82c0,4.6,0.23,9.21,0.7,13.79l0.02,0.15c0.25,2.46,0.26,4.94,0.01,7.4l-0.02,0.19
		c-0.48,4.86-0.43,9.73,0.14,14.56l0.05,0.38c0.14,1.2,0.33,2.39,0.57,3.58l0.02,0.1c0.82,4.05,0.9,8.18,0.25,12.26l-0.08,0.52
		c-0.39,2.44-0.58,4.89-0.58,7.35c0,2.56,0,5.51,0,5.51c-0.23,3.86-0.28,7.73-0.14,11.59l0.14,3.86v5.17c0,2.35-0.07,4.69-0.22,7.03
		l-0.4,6.44c-0.01,0.55-0.19,3.9-0.2,4.45l0.19,6.28l0.24,11.27c0.03,1.45-0.05,2.89-0.24,4.33l-0.57,7.82
		c-0.21,1.6,0.25,3.78,0.06,5.58c-0.14,1.34-0.31,2.67-0.27,4.02l0,0.02c0.01,0.38-0.03,0.76-0.12,1.13
		c-0.15,0.68-0.34,3.33-0.34,3.33l-0.19,4.59c0,0.12-0.01,0.3-0.03,0.5c-0.19,2.22-0.1,6.5-0.1,6.5l-0.06,1.51l-0.04,2.43
		c0,0.27,0,1.6-0.01,2.34c0,0.54,0,1.08,0,1.61l0.05,2.08v5.71l-0.07,2.22l-0.22,3.49c-0.03,0.1-0.13,3.76-0.13,3.76l-0.07,4.12
		l-0.21,3.4l-0.05,1.49c-0.01,0.25,0,0,0.02,1.96L358,264.5c-0.01,0.74,0,4.65,0,4.65l-0.03,3.06l0.02,1.23v1.22l0.04,1.36
		l0.07,1.33l0.09,1.44l0.12,2.03l0.16,2.73c0.01,0.6,0.03,1.57,0.04,2.17l-0.15,6.53c0,0,0.03,3.57,0.05,3.56
		c0,0,0.03,1.1,0.03,1.11l0.18,3.85c0.16,1,0.22,4.03,0.22,4.03v10.14l-0.62,11.71c0,0.48,0.44,5.68,0.48,6.16
		c0.09,1.01-0.27,4.36-0.32,5.37l-0.97,11.9l1.43,14.48c0.01,1.44,0.83,8.61,1.15,10.02l0.57,11.59v9.66c0,2.72-0.1,5.44-0.3,8.16
		l-0.28,3.78c0,0,0,0,0,0c0.13,2.49-0.11,7.32-0.52,10.86c-0.12,1.02,0.82,1.91,2.05,1.91h24V60H359.71z"/>
	<g class="st13">
		<circle class="st14" cx="362" cy="397" r="33"/>
		<circle class="st15" cx="362" cy="397" r="20.9"/>
	</g>
</g>
<rect id="外框" class="st16" width="480" height="480"/>
</svg>
