<?xml version="1.0" encoding="UTF-8"?>
<svg id="uuid-3839f919-0566-4f59-83a0-2882888bb51e" data-name="图层 1" xmlns="http://www.w3.org/2000/svg" viewBox="0 0 46 46">
  <defs>
    <style>
      .uuid-a85ef8b5-667e-44da-af6d-3e38ddf9d5c4 {
        fill: none;
      }
    </style>
  </defs>
  <g id="uuid-00cb0ce7-2e87-49be-8b53-1f0b1214076e" data-name="星环">
    <path d="m27.41,41.15v-.1s0-.11,0-.11c-.1-.05-.19-.07-.28-.05-.13.03-.22.12-.26.27-.04.15-.03.35.02.59.06.27.18.39.36.35.11-.02.19-.12.25-.29l-.04-.28c-.03-.18-.04-.3-.05-.37Z"/>
    <path d="m20.77,41.44c-.09.12-.14.31-.17.57-.03.28.05.43.23.45.11.01.22-.05.33-.2l.06-.28c.03-.18.06-.3.07-.37l.03-.09.03-.1c-.07-.08-.16-.12-.25-.14-.14-.01-.25.04-.33.17Z"/>
    <path d="m19.05,40.93c-.11-.03-.21,0-.3.06-.09.06-.16.16-.22.29l.19.04c.17.04.29.04.38,0,.08-.03.13-.08.15-.15.01-.06,0-.11-.03-.15-.03-.04-.09-.07-.16-.08Z"/>
    <path d="m23,0C10.3,0,0,10.3,0,23s10.3,23,23,23,23-10.3,23-23S35.7,0,23,0Zm-5.28,40.67s-.06-.04-.09-.05c-.06-.02-.12-.02-.19,0s-.14.04-.2.09c-.09.2-.19.43-.3.68-.11.25-.19.42-.22.5-.03.08-.13.09-.28.04l-.11-.04c-.07-.02-.12-.05-.15-.09-.03-.04-.04-.07-.03-.1l.54-1.2c.04-.1.08-.18.1-.26l.04-.13s.01-.05.02-.08c.01-.04.07-.06.16-.06.09,0,.2.02.33.07.07.02.09.12.05.28.09-.06.17-.11.26-.14.09-.03.18-.03.27,0,.12.04.16.12.12.23-.02.06-.06.13-.13.21-.06.07-.11.11-.14.1,0,0-.03-.02-.05-.04Zm1.89.93c-.11.09-.23.14-.37.16-.14.02-.28.01-.42-.02-.14-.03-.28-.07-.4-.12-.02.15,0,.27.05.34.06.07.15.12.27.15.16.04.34.03.56-.02.05-.01.07-.02.08-.01.01,0,.02,0,.02.01,0,0,0,.02,0,.05,0,.01-.02.06-.04.14s-.04.13-.06.16c-.05.09-.15.14-.3.15-.15.01-.3,0-.44-.03-.31-.07-.52-.2-.64-.38-.12-.18-.15-.41-.09-.68.1-.42.27-.71.51-.87.25-.16.53-.2.84-.13.2.04.34.11.44.2.1.09.16.18.18.27.02.1.02.18,0,.27-.04.16-.11.29-.21.38Zm2.14.92s.05.04.09.04c.02,0,.05,0,.07,0,.02,0,.04,0,.05,0,.01,0,.02,0,.02.01s0,.02,0,.04c0,.05-.02.13-.05.24-.02.07-.06.11-.14.14-.07.03-.15.04-.23.03-.25-.03-.39-.14-.43-.35-.07.08-.15.15-.25.2-.1.05-.21.07-.32.05-.2-.02-.34-.11-.45-.27-.1-.16-.14-.38-.11-.66.03-.25.09-.47.18-.66.09-.19.21-.33.36-.42.15-.09.3-.13.48-.11.1,0,.19.04.27.09s.14.11.19.17c.02-.05.04-.09.06-.11.02-.02.04-.04.07-.04.03,0,.08,0,.15,0h.05c.15.02.23.06.22.13l-.07.35c-.15.68-.22,1.04-.22,1.06,0,.04,0,.08.02.1Zm1.92-1.28s-.06.09-.09.13c-.03.04-.06.06-.09.06-.02,0-.05,0-.08-.02-.11-.04-.19-.06-.26-.06-.07,0-.13.02-.16.05-.04.03-.05.08-.05.13,0,.04.02.08.06.11.04.03.1.07.19.11.1.04.17.08.24.13s.12.1.16.18c.05.08.07.18.07.29,0,.22-.08.38-.23.51-.15.12-.34.18-.58.18-.13,0-.27-.02-.4-.05-.13-.04-.2-.1-.2-.19,0-.24.03-.36.09-.36,0,0,.03.01.08.04.13.07.25.1.36.1.08,0,.15-.02.2-.05.05-.03.07-.07.07-.13,0-.06-.02-.1-.06-.13-.04-.03-.11-.07-.2-.12-.09-.04-.17-.09-.23-.13-.06-.04-.11-.1-.16-.17-.04-.08-.07-.17-.07-.28,0-.21.07-.38.22-.5.15-.12.34-.18.57-.18.14,0,.27.02.39.06.12.04.19.1.19.19,0,.03-.01.06-.04.11Zm2.38,1.38c0,.07-.04.12-.11.17-.07.04-.14.07-.22.08-.16.02-.28-.01-.37-.08-.09-.07-.14-.2-.16-.37,0-.06,0-.25,0-.59,0-.23,0-.35,0-.38,0-.07-.03-.11-.07-.14-.04-.03-.09-.04-.17-.03-.12.01-.23.1-.32.26v1.3c0,.09-.08.14-.24.15h-.11c-.07.02-.13.01-.17,0-.04-.02-.06-.05-.07-.08v-2.79c0-.08.08-.14.24-.15h.11c.08-.02.13-.01.17,0s.06.05.07.08v1.04c.06-.08.15-.16.25-.22.1-.06.2-.1.31-.11.18-.02.31,0,.41.08.09.07.15.2.17.37,0,.04,0,.23,0,.58,0,.28,0,.43,0,.47,0,.04.02.08.04.1.02.02.05.03.09.02.03,0,.05,0,.07-.02.02,0,.04-.02.05-.02.01,0,.02,0,.03,0,0,0,0,.02.01.03,0,.05,0,.13,0,.24Zm2.26-.33c-.06.05-.13.08-.21.1-.25.06-.42,0-.52-.19-.04.1-.1.19-.18.27s-.18.13-.29.15c-.19.04-.36,0-.51-.12-.15-.12-.25-.32-.31-.59-.06-.25-.07-.47-.04-.68.03-.21.1-.38.21-.51s.25-.22.41-.26c.1-.02.19-.02.28,0,.09.02.17.06.24.1,0-.06,0-.1.02-.12s.03-.05.05-.07.08-.04.14-.05h.05c.15-.04.23-.03.25.04l.04.35c.08.69.12,1.05.13,1.08.01.04.03.07.05.09.02.02.06.02.1,0,.02,0,.04-.01.07-.03.02-.01.03-.02.04-.02.01,0,.02,0,.03,0,0,0,0,.01.01.03.01.05.02.13.03.24,0,.07-.02.13-.09.18Zm1.15-.37c-.06.06-.12.1-.2.12-.15.05-.28.05-.38,0s-.18-.16-.24-.33c-.02-.05-.09-.4-.23-1.05-.14-.65-.23-1.1-.28-1.33,0-.04,0-.08.02-.1.02-.03.07-.05.14-.07l.18-.06c.12-.04.19-.02.21.04l.5,2.3s.03.07.06.09c.02.01.06.02.1,0,.02,0,.04-.02.06-.03.02-.02.03-.02.04-.03.01,0,.02,0,.03,0,0,0,.01.02.02.03.02.05.03.13.05.24,0,.07-.01.13-.07.19Zm-6.46-4.12c-8.16,0-14.8-6.64-14.8-14.8s6.64-14.8,14.8-14.8,14.8,6.64,14.8,14.8-6.64,14.8-14.8,14.8Z"/>
  </g>
  <g id="uuid-28f9599f-8538-413a-88bd-1dadabd439d2" data-name="猫身">
    <path d="m33.37,22.17c0-2.33-.78-4.13-2.08-5.45-.02-4.89-.31-4.76-4.14-2.84-.24.12-.48.24-.72.35-1.08-.23-2.23-.35-3.43-.35s-2.36.12-3.43.35c-.24-.12-.48-.23-.72-.35-3.83-1.92-4.12-2.05-4.14,2.84-1.3,1.32-2.08,3.12-2.08,5.45,0,3.03,1.31,5.17,3.39,6.52-1.04,1.78-1.66,3.97-1.66,6.34,0,.06,0,.12,0,.18,2.43,1.75,5.41,2.8,8.63,2.8s6.2-1.04,8.63-2.8c0-.06,0-.12,0-.18,0-2.37-.62-4.56-1.66-6.34,2.08-1.35,3.39-3.49,3.39-6.52Zm-7.92,1.72c-.14.07-3.27,1.71-2.48,4.87.13.52.37,1.01.63,1.54.7,1.42,1.57,3.18.32,6.1-.16.38-.53.61-.92.61-.13,0-.27-.03-.39-.08-.51-.22-.74-.81-.52-1.31.89-2.07.37-3.11-.27-4.43-.29-.59-.59-1.21-.78-1.93-.94-3.78,1.89-6.32,3.52-7.14.49-.25,1.09-.05,1.34.45.25.49.05,1.09-.44,1.34Z"/>
    <path class="uuid-a85ef8b5-667e-44da-af6d-3e38ddf9d5c4" d="m24.55,22.11c-1.63.82-4.47,3.36-3.52,7.14.18.73.48,1.34.78,1.93.65,1.32,1.16,2.36.27,4.43-.22.51.02,1.09.52,1.31.13.06.26.08.39.08.39,0,.76-.23.92-.61,1.25-2.92.38-4.68-.32-6.1-.26-.52-.5-1.02-.63-1.54-.79-3.15,2.34-4.79,2.48-4.87.49-.25.69-.85.44-1.34-.25-.49-.85-.69-1.34-.45Z"/>
  </g>
</svg>